<?xml version="1.0" encoding="UTF-8" standalone="no"?>
<!-- Created with Inkscape (http://www.inkscape.org/) -->

<svg
   width="148.50929mm"
   height="165.93549mm"
   viewBox="0 0 148.50929 165.93549"
   version="1.1"
   id="svg5"
   inkscape:version="1.2 (dc2aeda, 2022-05-15)"
   sodipodi:docname="foto.svg"
   xml:space="preserve"
   inkscape:export-filename="foto.png"
   inkscape:export-xdpi="96"
   inkscape:export-ydpi="96"
   xmlns:inkscape="http://www.inkscape.org/namespaces/inkscape"
   xmlns:sodipodi="http://sodipodi.sourceforge.net/DTD/sodipodi-0.dtd"
   xmlns="http://www.w3.org/2000/svg"
   xmlns:svg="http://www.w3.org/2000/svg"><sodipodi:namedview
     id="namedview7"
     pagecolor="#ffffff"
     bordercolor="#666666"
     borderopacity="1.0"
     inkscape:showpageshadow="2"
     inkscape:pageopacity="0.0"
     inkscape:pagecheckerboard="0"
     inkscape:deskcolor="#d1d1d1"
     inkscape:document-units="mm"
     showgrid="false"
     inkscape:zoom="0.5164123"
     inkscape:cx="501.53724"
     inkscape:cy="535.42489"
     inkscape:window-width="1294"
     inkscape:window-height="704"
     inkscape:window-x="72"
     inkscape:window-y="27"
     inkscape:window-maximized="1"
     inkscape:current-layer="layer1" /><defs
     id="defs2" /><g
     inkscape:label="Camada 1"
     inkscape:groupmode="layer"
     id="layer1"
     transform="translate(-31.039019,-60.309748)"><path
       id="path20447"
       style="fill:#5da7d4;fill-opacity:1;stroke:none;stroke-width:2.11928"
       d="m 179.50791,153.43148 c -2.05836,60.91947 -37.06007,58.43484 -74.08723,69.49837 -42.250996,12.62438 -67.878873,-10.8609 -74.087237,-69.49837 -4.041286,-38.16955 34.180215,-60.462302 74.087237,-69.498398 32.85594,-7.439498 75.62658,23.939058 74.08723,69.498398 z"
       sodipodi:nodetypes="sssss"
       inkscape:export-filename="../Imagens/foto.svg"
       inkscape:export-xdpi="96"
       inkscape:export-ydpi="96" /><path
       id="path20447-7"
       style="fill:#217db5;fill-opacity:1;stroke:none;stroke-width:1.70743"
       d="m 164.8059,141.00514 c 12.7195,52.75937 -17.19884,54.44333 -46.02885,67.40139 -32.562204,14.63555 -55.669476,3.64561 -71.199999,-40.96019 -10.109462,-29.03575 16.092609,-53.23563 46.028855,-67.4014 24.646884,-11.662836 62.648674,5.49003 71.199994,40.9602 z"
       sodipodi:nodetypes="sssss" /><path
       id="path20447-7-5"
       style="fill:#3f7697;fill-opacity:1;stroke:none;stroke-width:1.24502"
       d="m 152.34197,147.38192 c 9.49968,37.56023 -16.44666,46.21248 -37.97866,55.43753 -24.319424,10.41928 -37.975784,-4.85807 -49.574919,-36.61364 -7.550356,-20.67101 12.018945,-37.89927 34.377135,-47.9841 18.407784,-8.30296 46.789794,3.90843 53.176444,29.16021 z"
       sodipodi:nodetypes="sssss" /><path
       style="fill:#515151;fill-opacity:1;stroke:none;stroke-width:0.374012px;stroke-linecap:butt;stroke-linejoin:miter;stroke-opacity:1"
       d="m 100.16136,221.16307 c 14.06318,6.45797 39.53902,7.13708 56.21956,-16.19702 -18.10634,-14.74593 -47.41654,2.97428 -56.21956,16.19702 z"
       id="path18192"
       sodipodi:nodetypes="ccc" /><path
       style="fill:#262626;fill-opacity:1;stroke:#262626;stroke-width:0.964571;stroke-dasharray:none;stroke-opacity:1"
       d="m 104.08408,160.84233 c -0.23336,-0.51217 0.12324,-0.96318 3.65962,-4.62843 2.59898,-2.6937 3.92262,-3.90152 3.93139,-3.58738 0.0222,0.79387 -0.75262,3.50693 -1.55045,5.42916 -0.73015,1.7592 -0.78924,1.82486 -1.78561,1.98418 -0.56676,0.0906 -1.6978,0.43594 -2.51343,0.76736 l -1.48296,0.60258 z"
       id="path18138" /><ellipse
       style="fill:#ff0000;fill-opacity:1;stroke:#000000;stroke-width:1.15875;stroke-dasharray:none;stroke-opacity:1"
       id="path17678"
       cx="11.462916"
       cy="198.28874"
       rx="9.7167807"
       ry="5.677803"
       transform="rotate(-29.329753)" /><path
       style="fill:#ffffd9;fill-opacity:1;stroke:#ffffc7;stroke-width:0.274542;stroke-dasharray:none;stroke-opacity:1"
       d="m 102.35104,163.93696 c -0.0986,-0.3294 -0.29977,-0.84814 -0.44697,-1.15276 l -0.26765,-0.55385 0.45531,-0.45126 0.4553,-0.45126 0.14805,0.2424 c 0.43326,0.70938 0.57096,1.36788 0.4143,1.98122 -0.10659,0.41728 -0.40986,0.98557 -0.52555,0.98479 -0.0294,-2e-4 -0.13415,-0.26988 -0.23279,-0.59928 z"
       id="path17998" /><path
       style="fill:#ffffd9;fill-opacity:1;stroke:#ffffc7;stroke-width:0.274542;stroke-dasharray:none;stroke-opacity:1"
       d="m 100.20614,167.50718 c -0.18433,-0.56699 -0.710574,-1.55866 -1.094534,-2.06259 l -0.33209,-0.43583 0.85848,-0.81763 c 0.982334,-0.9356 0.918124,-0.93426 1.216514,-0.0254 0.38538,1.17386 0.48854,1.70365 0.40464,2.07805 -0.10085,0.44999 -0.3843,1.01746 -0.68548,1.37233 l -0.24013,0.28292 z"
       id="path17996" /><path
       style="fill:#ffffd9;fill-opacity:1;stroke:#ffffc7;stroke-width:0.274542;stroke-dasharray:none;stroke-opacity:1"
       d="m 96.085406,173.03667 c -0.35362,-0.10787 -1.24058,-0.74775 -1.86269,-1.34379 -0.56971,-0.54584 -1.46379,-1.5827 -1.46115,-1.69448 7.5e-4,-0.0276 0.25323,-0.22995 0.56129,-0.44969 0.73094,-0.52138 2.45343,-1.90069 3.49832,-2.80135 l 0.82835,-0.714 0.21149,0.25041 c 0.87927,1.04113 1.46345,3.03566 1.28994,4.40421 -0.12131,0.95676 -0.58109,1.72711 -1.22341,2.04984 -0.54683,0.27474 -1.44404,0.42029 -1.84214,0.29885 z"
       id="path17994" /><path
       style="fill:#ffffd9;fill-opacity:1;stroke:#ffffc7;stroke-width:0.274542;stroke-dasharray:none;stroke-opacity:1"
       d="m 92.179776,175.17477 c -0.88345,-0.24693 -2.11482,-1.14635 -3.11692,-2.27665 l -0.4471,-0.50432 0.52872,-0.25579 c 0.2908,-0.14068 0.93558,-0.48959 1.43284,-0.77535 l 0.9041,-0.51957 0.14916,0.20622 c 0.7602,1.05094 2.16136,2.39825 3.04872,2.93153 l 0.28453,0.171 -0.36135,0.33161 c -0.74869,0.6871 -1.58451,0.9256 -2.4227,0.69132 z"
       id="path17992" /><path
       style="color:#000000;fill:#000000;stroke:none;stroke-width:1.41359;stroke-opacity:1;-inkscape-stroke:none"
       d="m 125.50239,199.52111 c -10.5653,3.69257 -19.13343,12.8261 -26.071364,20.93844 l 0.971844,1.02706 c 8.30339,-7.83979 18.14432,-14.63097 27.145,-18.41827 9.00067,-3.78729 17.12349,-4.66654 28.3909,2.36904 l 0.74821,-1.201 c -9.45568,-8.64983 -22.5748,-8.16429 -31.18459,-4.71527 z"
       id="path13371"
       sodipodi:nodetypes="cccsccc" /><path
       style="fill:#ffd0d0;fill-opacity:1;stroke:#000000;stroke-width:1.41359;stroke-linecap:butt;stroke-linejoin:miter;stroke-dasharray:none;stroke-opacity:1"
       d="m 116.52285,198.9233 c 1.99691,3.24208 3.59329,7.51801 9.35621,8.16555 3.1959,0.35911 6.05011,-2.20947 6.88731,-5.12155 1.02079,-3.55077 -1.19932,-8.95583 -3.41928,-12.31253 -0.25002,-0.30122 -0.51349,-0.59138 -0.79083,-0.86769"
       id="path13160"
       sodipodi:nodetypes="csscc" /><path
       style="fill:#000000;stroke:#000000;stroke-width:2.82718;stroke-linecap:butt;stroke-linejoin:miter;stroke-dasharray:none;stroke-opacity:1"
       d="M 53.394478,113.71403 C 10.892885,102.91088 43.584545,67.578526 82.703076,61.723978 c 2.69647,-0.05662 8.84187,6.092104 35.109394,6.950372 10.5676,3.432486 27.60572,5.94263 18.13849,31.70797 -1.38817,3.77796 -12.10955,-11.536021 -29.79353,-10.663185 -29.115934,1.437113 -45.916765,21.881005 -52.762952,23.994895 z"
       id="path11429"
       sodipodi:nodetypes="cccssc" /><path
       style="fill:#ffd0d0;fill-opacity:1;stroke:#000000;stroke-width:0.918754;stroke-dasharray:none;stroke-opacity:1"
       d="m 84.330956,202.65153 c -2.54973,-0.15906 -5.92031,-0.60304 -8.2623,-1.0883 -10.169178,-2.10708 -18.847343,-9.07729 -23.713007,-19.04603 -1.613471,-3.30568 -2.535786,-5.89561 -3.635832,-10.20968 -1.790585,-7.02217 -2.052554,-9.26293 -2.060424,-17.62383 -0.0071,-7.49874 0.133545,-9.47713 1.097047,-15.43605 0.470664,-2.9109 0.47384,-2.91899 1.506971,-3.84156 3.801987,-3.39512 7.909543,-5.63755 11.241901,-6.13726 2.448039,-0.36711 2.464761,-3.02635 0.01904,-3.02635 -2.205851,0 -6.367328,1.63611 -9.435585,3.70968 -0.902462,0.60989 -1.795369,1.92537 -1.795369,1.76881 0,-1.03724 3.298189,-12.12501 4.599177,-15.28548 0.506929,-1.23148 0.749326,-1.51049 1.821837,-2.09699 1.469993,-0.80387 2.928216,-1.82105 8.463355,-5.90356 4.801442,-3.54137 9.367746,-6.5599 12.925599,-8.5444 9.39266,-5.239037 19.43238,-8.183795 29.227014,-8.572588 7.43392,-0.295085 13.37038,1.726819 22.02448,7.501337 l 3.96817,2.647791 -1.20959,1.50109 c -1.53854,1.90931 -3.23991,5.33748 -3.89007,7.83826 -0.71817,2.76241 -0.87789,6.92477 -0.37778,9.84504 0.57006,3.32873 1.66742,5.45176 4.05887,7.85258 l 1.88955,1.89695 -0.8229,1.62782 c -1.35508,2.6806 -1.70651,5.53253 -0.97943,7.94843 0.52042,1.72919 1.39649,2.05761 2.61865,0.98167 0.59748,-0.52599 0.63626,-0.65623 0.39851,-1.33823 -0.66905,-1.91924 0.74838,-5.72399 3.2686,-8.77377 2.27201,-2.74943 4.9639,-4.09862 8.58007,-4.3004 2.58894,-0.14447 4.08574,0.24112 5.51757,1.42136 1.39841,1.15268 1.67694,1.89857 1.66009,4.44561 -0.0538,8.12912 -6.66078,18.58374 -14.57538,23.06344 -0.71231,0.40317 -1.39328,0.99126 -1.51328,1.30688 -0.28389,0.74668 0.0813,1.70109 0.72964,1.90687 1.08971,0.34586 4.94444,-1.21652 7.14424,-2.89567 0.62559,-0.47752 1.17848,-0.86822 1.22864,-0.86822 0.15685,0 -0.53647,3.33891 -1.19611,5.76023 -1.76675,6.48518 -5.10699,13.05242 -9.55779,18.7916 -1.99703,2.57511 -6.81965,7.44248 -9.39622,9.48341 -9.96152,7.89061 -22.08672,12.64381 -34.710404,13.60682 -3.0836,0.23523 -4.19718,0.24866 -6.85754,0.0827 z m 18.765214,-21.04591 c -0.94458,-2.27649 -1.2548,-2.85741 -1.48109,-2.77342 -0.32068,0.11901 -0.26271,0.40516 0.38949,1.92261 0.27324,0.63576 0.65837,1.15467 0.85697,1.15467 0.19839,0 0.30397,-0.13674 0.23463,-0.30386 z m -8.009564,-5.48628 c 0.44304,-0.31548 1.10926,-0.53014 1.6453,-0.53014 3.06859,0 9.008434,-5.81659 12.908374,-12.64054 2.19967,-3.84889 3.73962,-8.44956 3.73962,-11.17229 0,-0.75406 0.10838,-1.47939 0.24084,-1.61185 0.28991,-0.28991 -0.3514,-1.31492 -0.8227,-1.31492 -0.17117,0 -3.29163,3.06188 -6.93437,6.80419 -3.64273,3.7423 -7.771164,7.81706 -9.174284,9.055 -5.08551,4.48686 -9.04823,6.85655 -12.01252,7.18346 -1.54278,0.17014 -1.56225,0.18158 -1.63752,0.96222 -0.0748,0.77582 -0.0582,0.79004 0.92548,0.79004 0.55091,0 1.4603,-0.11522 2.02087,-0.25604 l 1.01922,-0.25604 1.41097,1.36774 c 0.77603,0.75225 1.86992,1.58221 2.43088,1.84437 1.31991,0.61685 3.19734,0.51713 4.23984,-0.2252 z m -10.30047,-13.353 c 0.30485,-0.68201 0.86324,-3.14881 0.8804,-3.88939 7.4e-4,-0.0334 -0.14859,-0.0608 -0.33191,-0.0608 -0.21859,0 -0.39144,0.43925 -0.50218,1.27621 -0.0929,0.70191 -0.38045,1.75501 -0.63904,2.34023 -0.55958,1.26637 -0.55717,1.24531 -0.14246,1.24531 0.18024,0 0.51108,-0.41021 0.73519,-0.91159 z m -17.756553,-1.26169 c 1.367704,-0.47056 3.18953,-1.5762 3.79061,-2.30045 0.557944,-0.67228 -0.311276,-0.72293 -2.098962,-0.12231 -2.902229,0.97508 -5.79369,0.60521 -7.170446,-0.91724 -1.221334,-1.35057 -1.617892,-4.66469 -0.838465,-7.00726 0.222141,-0.66765 1.128243,-2.52657 2.01356,-4.13095 1.913239,-3.46718 2.522719,-5.10904 2.522719,-6.79589 0,-1.29492 -0.290862,-1.83372 -0.989899,-1.83372 -0.281362,0 -0.452032,0.28062 -0.554436,0.91159 -0.198051,1.22029 -0.851616,2.38832 -2.958387,5.28715 -1.887182,2.59667 -3.529886,5.63123 -4.013525,7.41416 -0.811802,2.99268 -0.09438,5.97777 1.872351,7.79064 2.321968,2.14032 5.367073,2.75631 8.42488,1.70428 z m 20.298583,-0.19683 c 0.12034,-0.23397 0.29132,-1.16378 0.37995,-2.06624 0.13031,-1.32678 0.0955,-1.64084 -0.18193,-1.64084 -0.24538,0 -0.37892,0.4327 -0.46889,1.5193 -0.0692,0.83561 -0.20408,1.76542 -0.29976,2.06624 -0.2085,0.65556 0.24615,0.75239 0.57063,0.12154 z m -16.411807,-6.6593 c 1.442177,-0.7558 3.812646,-3.17479 3.812646,-3.8907 0,-0.423 -1.073524,-0.18438 -2.279741,0.50674 -2.446203,1.40159 -3.773057,2.87631 -3.149212,3.50016 0.248775,0.24877 1.026583,0.19285 1.616307,-0.1162 z m 32.253871,-3.61114 c 0,-0.1337 -0.13673,-0.24525 -0.30386,-0.2479 -0.52714,-0.008 -3.688054,-0.48614 -4.132484,-0.62464 -0.27689,-0.0863 -0.42541,-0.003 -0.42541,0.23743 0,0.23839 0.32426,0.42422 0.91158,0.52246 0.50137,0.0838 1.020974,0.18956 1.154674,0.23491 0.57771,0.19594 2.7955,0.0989 2.7955,-0.12226 z m 2.37011,-1.84122 c 0.30081,-0.062 0.54694,-0.23492 0.54694,-0.38424 0,-0.18314 -0.36704,-0.22119 -1.12782,-0.11691 -0.6203,0.085 -1.76889,0.15459 -2.55242,0.15459 -1.13198,0 -1.42459,0.0783 -1.42459,0.38133 0,0.32783 0.28137,0.36006 2.00547,0.22965 1.103,-0.0834 2.25159,-0.20241 2.55242,-0.26442 z m -49.295368,-5.325 c 1.706496,-0.88246 2.203559,-2.72602 1.154985,-4.28371 -0.984323,-1.46223 -2.492768,-1.76886 -3.705489,-0.75323 -1.77041,1.48269 -1.799019,3.84884 -0.05935,4.90952 0.949087,0.57865 1.669267,0.61382 2.609856,0.12742 z m 32.859564,-7.55783 c 0.95729,-0.49503 1.77359,-2.26197 1.56318,-3.38361 -0.16338,-0.87083 -1.14733,-2.00084 -2.03778,-2.34026 -0.30953,-0.11798 -0.95295,-0.21451 -1.42982,-0.21451 -1.07976,0 -2.40475,1.28718 -2.64539,2.56989 -0.48088,2.56332 2.22823,4.56903 4.54981,3.36849 z M 74.175059,125.77776 c 1.040009,-0.38928 3.531767,-1.47104 5.537237,-2.40391 4.06041,-1.88874 7.06012,-2.95628 9.96743,-3.5472 2.19148,-0.44543 8.12245,-1.11196 9.96574,-1.11996 3.183104,-0.0138 4.074724,-0.5764 3.962164,-2.49996 -0.0638,-1.08974 -0.16285,-1.29568 -0.80203,-1.66715 -0.98148,-0.5704 -3.184774,-0.89046 -7.414164,-1.077 -2.99562,-0.13213 -3.87145,-0.0828 -5.8341,0.32877 -4.56797,0.95785 -12.74422,4.38002 -16.529942,6.91862 -1.780075,1.19366 -2.901713,2.86154 -2.91137,4.32922 -0.01096,1.66455 1.063101,1.85998 4.059035,0.73857 z"
       id="path16203"
       sodipodi:nodetypes="ssssssssssssssssscsssscsssssssssssssssssssssssssssssssssssscssssssssssssssssssssssssssssssssssssssssssssssssssssssssssssssssssssss" /><path
       style="fill:#262626;fill-opacity:1;stroke:#262626;stroke-width:0.927237;stroke-dasharray:none;stroke-opacity:1"
       d="m 133.00721,126.27729 c -2.61016,-2.68405 -3.61773,-5.90984 -3.34904,-10.72218 0.21482,-3.84765 1.2028,-6.75485 3.39355,-9.9858 1.27126,-1.8749 2.3856,-2.69409 3.85704,-2.83548 2.02345,-0.19443 3.60075,0.91427 5.28015,3.71147 2.08979,3.48075 3.64529,8.67398 3.68386,12.29911 0.0329,3.09365 -0.18806,3.42811 -2.82517,4.27616 -2.59579,0.83475 -4.60677,1.89963 -6.53729,3.46168 -0.82707,0.66921 -1.64253,1.21674 -1.81214,1.21674 -0.16962,0 -0.93055,-0.63976 -1.69096,-1.4217 z"
       id="path16593" /><path
       style="fill:#262626;fill-opacity:1;stroke:#262626;stroke-width:0.927237;stroke-dasharray:none;stroke-opacity:1"
       d="m 48.387997,131.07112 c -0.0059,-1.36383 0.958505,-11.26085 1.594924,-13.92246 l 0.631423,-2.64073 1.131085,0.34041 c 0.622099,0.18722 1.164589,0.37391 1.205536,0.41485 0.04094,0.041 -0.426845,1.33777 -1.039534,2.88183 -0.612689,1.54406 -1.655391,4.40816 -2.317116,6.36467 -0.720438,2.13011 -1.204414,7.00215 -1.206318,6.56143 z"
       id="path16591"
       sodipodi:nodetypes="sscsssss" /><ellipse
       style="fill:none;fill-opacity:0.772549;stroke:none;stroke-width:1.80742;stroke-opacity:1"
       id="path4203"
       cx="91.212212"
       cy="148.11104"
       rx="55.302254"
       ry="55.219009" /><path
       style="color:#000000;fill:#000000;stroke-width:1.41359;-inkscape-stroke:none"
       d="m 99.052786,113.79695 c -4.52626,-0.26711 -6.99699,-0.79778 -11.54757,0.59737 -6.06744,1.86019 -12.367945,4.72044 -15.986995,7.54411 -2.064917,3.17597 -2.053713,5.32771 1.44803,4.20441 5.223865,-1.83344 6.978215,-3.57857 13.508935,-5.65945 5.58341,-1.77904 14.571014,-1.94002 15.063294,-2.02193 1.16155,-0.19328 2.30144,-0.42004 2.11407,-2.69901 -0.12002,-1.46021 -3.09102,-1.87645 -4.599764,-1.9655 z"
       id="path6003"
       sodipodi:nodetypes="ssccssss" /><path
       style="color:#000000;fill:#000000;stroke-width:1.41359;-inkscape-stroke:none"
       d="m 61.277883,126.25697 c -2.551511,-0.008 -5.464189,1.12052 -8.152995,2.59803 -2.688806,1.47753 -3.976987,2.4357 -5.25974,4.34372 l -0.476452,3.9206 c 0.763838,-1.13616 4.670399,-4.45416 7.097325,-5.78777 2.426927,-1.33362 5.165,-2.25233 6.783579,-2.24739 1.270194,-0.9936 1.366045,-1.93976 0.0083,-2.82719 z"
       id="path6005"
       sodipodi:nodetypes="csccscc" /><path
       style="color:#000000;fill:#000000;stroke-width:1.41359;-inkscape-stroke:none"
       d="m 64.90982,138.72906 -0.931701,-0.27784 c 0.06313,3.08365 -3.56656,6.25569 -5.339306,9.50111 -0.886373,1.6227 -1.685397,3.2796 -2.009949,5.02763 -0.324553,1.74803 -0.187866,3.62395 0.894537,5.42796 0.0083,0.0141 0.01602,0.028 0.02485,0.0414 0.0086,0.0127 -1.345744,-1.76521 0.02761,0.0386 1.360122,1.78643 3.6045,3.36381 5.855912,3.45926 2.25141,0.0954 5.003361,-0.53609 7.643983,-3.08522 l -0.95703,-0.15632 c -2.344377,0.96826 -3.190189,1.16229 -5.132925,1.07992 -1.927109,-0.0817 -2.97684,-0.79953 -4.009038,-2.12867 -0.847848,-1.5238 -0.986083,-3.691 -0.712317,-5.1655 0.398847,-4.17473 6.331613,-9.62372 4.645377,-13.76236 z"
       id="path8551"
       sodipodi:nodetypes="ccssssssccscccc" /><path
       style="fill:none;stroke:#000000;stroke-width:1.41359;stroke-linecap:butt;stroke-linejoin:miter;stroke-dasharray:none;stroke-opacity:1"
       d="m 113.26376,149.40298 c -9.17017,8.66165 -21.201624,23.99571 -30.065904,23.44127"
       id="path8691"
       sodipodi:nodetypes="cc" /><path
       style="fill:none;fill-opacity:1;stroke:#000000;stroke-width:1.41359;stroke-linecap:butt;stroke-linejoin:miter;stroke-dasharray:none;stroke-opacity:1"
       d="m 87.540476,172.25731 c 1.46245,1.87883 4.37496,5.04362 7.00238,3.21754 0.67629,-0.3323 1.15951,-0.98826 1.37597,-1.70006"
       id="path9590"
       sodipodi:nodetypes="ccc" /><path
       style="fill:none;fill-opacity:1;stroke:#000000;stroke-width:1.41359;stroke-linecap:butt;stroke-linejoin:miter;stroke-dasharray:none;stroke-opacity:1"
       d="m 91.830736,170.01411 c 0.60568,0.94798 2.21768,2.98015 4.07424,3.78069 5.414704,0.4989 4.613784,-6.16765 2.03691,-8.54681 l -0.20167,-0.22079 -0.19737,-0.21807"
       id="path9592"
       sodipodi:nodetypes="ccccc" /><path
       style="fill:none;fill-opacity:1;stroke:#000000;stroke-width:1.41359;stroke-linecap:butt;stroke-linejoin:miter;stroke-dasharray:none;stroke-opacity:1"
       d="m 99.342746,169.50703 c 1.552964,-0.71005 3.286434,-2.66548 2.512014,-4.58891 -0.23224,-1.02009 -0.61574,-2.02643 -1.26166,-2.85932"
       id="path9594"
       sodipodi:nodetypes="ccc" /><path
       style="fill:none;fill-opacity:1;stroke:#000000;stroke-width:1.41359;stroke-linecap:butt;stroke-linejoin:miter;stroke-dasharray:none;stroke-opacity:1"
       d="m 102.33789,165.61274 c 1.25312,-0.55186 1.93626,-2.08071 1.42509,-3.5238 -0.25834,-0.7293 -0.73754,-1.36906 -0.94923,-2.11788"
       id="path9596"
       sodipodi:nodetypes="csc" /><path
       style="fill:none;fill-opacity:1;stroke:#000000;stroke-width:1.41359;stroke-linecap:butt;stroke-linejoin:miter;stroke-dasharray:none;stroke-opacity:1"
       d="m 95.649146,174.66186 c 4.14894,2.08983 17.359084,-13.69736 17.024144,-24.32456"
       id="path9598"
       sodipodi:nodetypes="cc" /><path
       style="fill:none;stroke:#000000;stroke-width:2.82718;stroke-linecap:butt;stroke-linejoin:miter;stroke-dasharray:none;stroke-opacity:1"
       d="m 133.37807,102.64685 c -5.14534,5.71516 -6.26236,12.79435 -4.70908,19.48615 0.67042,2.88832 5.40665,9.38212 8.30735,6.67732 1.97033,-3.14093 5.46105,-4.12754 8.832,-4.98654 3.25235,-2.61113 1.09934,-10.09568 -0.16261,-13.67046 -3.13992,-8.89463 -8.03596,-10.990112 -12.26766,-7.50647 z"
       id="path11847"
       sodipodi:nodetypes="csccsc" /><path
       style="color:#000000;fill:#000000;stroke-width:1.41359;-inkscape-stroke:none"
       d="m 48.284996,112.4557 c -1.964945,5.12326 -3.919593,14.88977 -1.093323,20.66178 l 0.880368,-1.93311 c -0.03995,-3.52892 0.932502,-12.71239 2.852395,-17.71817 z"
       id="path12884"
       sodipodi:nodetypes="ccccc" /><path
       style="fill:none;stroke:#000000;stroke-width:0.374012px;stroke-linecap:butt;stroke-linejoin:miter;stroke-opacity:1"
       d="m 85.299696,158.90217 c -0.10984,1.61825 -0.41061,3.27121 -1.25233,4.68217"
       id="path13027" /><path
       style="fill:none;stroke:#000000;stroke-width:0.374012px;stroke-linecap:butt;stroke-linejoin:miter;stroke-opacity:1"
       d="m 87.442956,157.70786 c -0.0859,1.29384 0.22874,2.75989 -0.64676,3.86056"
       id="path13033" /><path
       style="fill:none;stroke:#000000;stroke-width:0.374012px;stroke-linecap:butt;stroke-linejoin:miter;stroke-opacity:1"
       d="m 101.12042,149.1803 c 0.30544,0 0.61086,0 0.91628,0 0.15572,0 0.31175,0.01 0.46716,0 0.15663,-0.01 0.31046,-0.0502 0.46717,-0.0584 0.21382,-0.0113 0.4286,0.0127 0.64235,0 0.11817,-0.007 0.23245,-0.0476 0.35037,-0.0584 10e-6,0 0.58393,0 0.58394,0 0.0797,-0.008 0.15414,-0.0471 0.23358,-0.0584 0.0578,-0.008 0.11761,0.01 0.17519,0 0.0606,-0.01 0.1145,-0.0483 0.17518,-0.0584 0.0577,-0.01 0.11677,0 0.17519,0 0.0195,0 0.041,0.008 0.0584,0 0.0246,-0.0127 0.0338,-0.0459 0.0584,-0.0584 0.0311,-0.0157 0.40207,0 0.45935,0"
       id="path13045" /><path
       style="fill:none;stroke:#000000;stroke-width:0.374012px;stroke-linecap:butt;stroke-linejoin:miter;stroke-opacity:1"
       d="m 98.380106,150.38016 c 1.52433,0.48631 3.136934,0.6439 4.731194,0.61144"
       id="path13047" /><path
       style="fill:none;stroke:#000000;stroke-width:0.374012px;stroke-linecap:butt;stroke-linejoin:miter;stroke-opacity:1"
       d="m 101.52678,179.00619 c 0.62111,0.84851 0.74246,1.96035 1.40438,2.78453"
       id="path13051" /><path
       style="color:#000000;fill:#000000;stroke-width:1.41359;-inkscape-stroke:none"
       d="m 69.200409,154.53546 c 1.362782,1.46182 5.903309,-3.4887 5.296757,-3.86625 -0.676341,-0.49818 -5.891913,3.00959 -5.296757,3.86625 z"
       id="path13059"
       sodipodi:nodetypes="ccc" /><path
       style="fill:#000000;stroke:#000000;stroke-width:0.374012px;stroke-linecap:butt;stroke-linejoin:miter;stroke-opacity:1"
       d="m 86.021836,131.13477 c -3.95553,3.61623 2.65219,8.18709 4.2956,2.98468 0.74778,-2.3672 -2.62705,-4.51012 -4.2956,-2.98468 z"
       id="path14368"
       sodipodi:nodetypes="sss" /><path
       style="color:#000000;fill:#000000;stroke-width:1.41359;-inkscape-stroke:none"
       d="m 54.130869,113.21993 c -6.509701,14.31527 -11.772648,34.60187 -9.959643,51.50771 1.813005,16.90582 9.486959,32.28473 27.217144,38.73016 l 0.04417,0.0165 0.04417,0.0113 c 33.03577,10.27128 76.22012,-12.82299 78.19813,-54.24211 l -3.0707,3.112 c -3.99127,36.04229 -42.92199,57.46985 -74.290871,48.42441 -16.600264,-6.05533 -22.947804,-20.18633 -25.331436,-36.35301 -2.366868,-16.05298 1.847584,-36.51016 7.708303,-50.3393 z"
       id="path5507"
       sodipodi:nodetypes="csccccccscc" /><path
       style="fill:#000000;stroke:#000000;stroke-width:0.374012px;stroke-linecap:butt;stroke-linejoin:miter;stroke-opacity:1"
       d="m 54.411346,138.76016 c -3.262742,1.6851 -1.59097,5.74602 1.233461,5.04435 3.843714,-1.12828 1.504432,-6.45838 -1.233461,-5.04435 z"
       id="path14366"
       sodipodi:nodetypes="scs" /><path
       style="fill:#262626;fill-opacity:1;stroke:#262626;stroke-width:0.927237;stroke-dasharray:none;stroke-opacity:1"
       d="m 49.77558,111.01649 c -5.268805,-1.7729 -9.190906,-4.04541 -11.677345,-6.76597 -2.968586,-3.24811 -3.819102,-6.940942 -2.573001,-11.171682 2.393097,-8.125023 12.510963,-17.285211 25.81747,-23.373784 5.716381,-2.615612 11.525226,-4.492635 17.928742,-5.79335 l 3.53987,-0.719043 2.47074,1.003087 c 8.59997,3.491482 16.750244,5.146196 28.721164,5.831133 3.87467,0.221696 3.98288,0.243538 8.39089,1.693727 5.40614,1.77856 8.35969,3.275104 10.65407,5.398329 3.83811,3.551799 4.9861,8.990465 3.40071,16.111043 -0.727,3.26523 -1.69947,6.047831 -2.04257,5.844514 -0.15727,-0.0932 -2.10754,-1.37444 -4.33391,-2.847193 -8.38889,-5.549265 -14.03169,-7.662537 -21.22114,-7.947471 -7.10468,-0.281571 -15.965444,1.380926 -23.837034,4.472412 -7.75668,3.046355 -14.079681,6.767103 -23.878661,14.051308 -4.833884,3.59333 -7.285678,5.19522 -7.944617,5.19064 -0.286284,-0.002 -1.823207,-0.44195 -3.415378,-0.9777 z"
       id="path16589" /><path
       style="color:#000000;fill:#000000;stroke-width:1.41359;-inkscape-stroke:none"
       d="m 144.90614,122.80584 c -3.82864,0.49358 -7.40041,2.56994 -10.00558,5.32857 -3.47356,3.67815 -5.38268,8.38563 -3.39404,12.92081 1.38909,0.96933 1.87503,-0.12934 2.58509,-0.7148 -1.39312,-3.17707 1.31339,-8.01678 4.36189,-11.01036 1.72758,-1.69645 5.8053,-3.59518 9.84581,-2.92141 1.95715,0.40025 3.22026,1.21669 4.09168,2.29984 0.87536,1.08805 0.70786,1.67108 0.85804,3.29842 0.0376,9.79404 -8.17293,20.25196 -15.0523,23.7781 -2.45347,1.11113 -0.86469,3.46319 0.57979,2.76645 3.94052,-0.82817 7.02205,-3.41146 9.10192,-5.73976 5.21791,-5.1618 9.76936,-14.21606 8.84443,-20.98318 -0.18871,-2.04499 -0.83048,-4.02694 -2.12867,-5.64057 -1.29818,-1.61361 -3.24504,-2.80046 -5.75651,-3.30757 l -0.0221,-0.003 -0.0221,-0.006 c -1.30781,-0.22126 -2.61117,-0.23079 -3.88738,-0.0663 z"
       id="path11065"
       sodipodi:nodetypes="csccscscccccsccccc" /></g></svg>
