<?xml version="1.0" encoding="UTF-8" standalone="no"?>
<!-- Created with Inkscape (http://www.inkscape.org/) -->

<svg
   width="45.505764mm"
   height="35.403503mm"
   viewBox="0 0 45.505764 35.403503"
   version="1.1"
   id="svg5"
   inkscape:version="1.2 (dc2aeda, 2022-05-15)"
   sodipodi:docname="logo.svg"
   xml:space="preserve"
   xmlns:inkscape="http://www.inkscape.org/namespaces/inkscape"
   xmlns:sodipodi="http://sodipodi.sourceforge.net/DTD/sodipodi-0.dtd"
   xmlns="http://www.w3.org/2000/svg"
   xmlns:svg="http://www.w3.org/2000/svg"><sodipodi:namedview
     id="namedview7"
     pagecolor="#ffffff"
     bordercolor="#666666"
     borderopacity="1.0"
     inkscape:showpageshadow="2"
     inkscape:pageopacity="0.0"
     inkscape:pagecheckerboard="0"
     inkscape:deskcolor="#d1d1d1"
     inkscape:document-units="mm"
     showgrid="false"
     inkscape:zoom="1.1854993"
     inkscape:cx="234.50034"
     inkscape:cy="633.9101"
     inkscape:window-width="1294"
     inkscape:window-height="704"
     inkscape:window-x="72"
     inkscape:window-y="27"
     inkscape:window-maximized="1"
     inkscape:current-layer="layer1" /><defs
     id="defs2" /><g
     inkscape:label="Camada 1"
     inkscape:groupmode="layer"
     id="layer1"
     transform="translate(-48.856877,-151.78927)"><g
       id="g446"
       transform="translate(-14.48951,-1.3476268)"
       inkscape:export-filename="../Documentos/g446.svg"
       inkscape:export-xdpi="96"
       inkscape:export-ydpi="96"><g
         id="g412"
         transform="translate(-16.796481,43.048877)"><g
           id="g398"
           transform="translate(0.24140383,-0.2040827)"><g
             id="g392"
             transform="translate(0.07552839,0.01667955)"><path
               style="fill:#c2c2c2;fill-opacity:1;stroke-width:0.264583"
               d="m 108.34695,136.84066 c 0.72676,-5.16876 0.99364,-11.30938 -0.2126,-16.54444 l 0.88463,0.16451 c 3.03097,0.56365 7.20358,3.18322 9.34021,5.86379 1.34363,1.68569 3.07911,5.039 3.67195,7.09499 l 0.39005,1.35267 c -5.45697,0.87738 -10.63531,1.96044 -14.07424,2.06848 z"
               id="path215"
               sodipodi:nodetypes="ccssscc" /><path
               style="fill:#e6e6e6;fill-opacity:1;stroke-width:0.268364"
               d="m 97.123895,134.71752 c 1.33379,-3.38325 1.7263,-6.61248 1.39881,-11.50809 -0.11217,-1.67669 -0.50238,-4.4115 -0.86715,-6.07738 -0.36476,-1.66587 -0.66321,-3.11047 -0.66321,-3.21021 0,-0.0998 0.56555,-0.0251 1.25677,0.16582 5.397805,1.49108 10.226795,5.23466 13.122045,10.17258 1.23586,2.10779 2.59868,5.65635 2.95648,7.69821 l 0.17219,0.98262 -1.27926,0.17287 c -0.70359,0.0951 -4.31535,0.53833 -8.02614,0.98501 -3.71078,0.44668 -7.086855,0.87553 -7.502395,0.953 -0.63926,0.11918 -0.72668,0.0677 -0.56814,-0.33443 z"
               id="path217"
               sodipodi:nodetypes="cssscssccssc" /></g><path
             style="fill:#9e9e9e;fill-opacity:1;stroke-width:0.278787"
             d="m 95.547254,110.60999 2.076263,-0.0266 c 0,0 -0.01779,17.43718 0.0299,26.03984 -0.734728,-0.0782 -2.176708,-0.008 -2.176708,-0.008 z"
             id="path213"
             sodipodi:nodetypes="ccccc" /></g><g
           id="g402"
           transform="translate(39.148506,-11.942916)"><path
             style="fill:#575757;fill-opacity:1;stroke-width:0.264583"
             d="m 46.83323,152.5803 c -0.586276,-0.46466 -1.109495,-1.94504 -1.172521,-2.16986 -0.09439,-0.3367 9.609666,-0.009 19.328875,0.0287 l 21.249435,-1.26085 c -2.824285,1.56537 -3.969735,2.53539 -5.232125,3.57831 h -16.99864 c -9.349248,0 -17.07801,-0.0794 -17.175024,-0.17639 z"
             id="path209"
             sodipodi:nodetypes="cscccscc" /><path
             style="fill:#7a7a7a;fill-opacity:1;stroke-width:0.264583"
             d="m 81.00653,152.75548 c -2.016685,2.3151 -2.366692,3.20511 -2.756502,3.51562 -0.45072,0.35904 -4.32635,1.17669 -9.47434,1.13878 -12.060364,-0.0888 -15.105398,0.97684 -21.936727,-4.83309 4.346503,0.20036 23.284651,-0.0183 34.167569,0.17869 z m -40.012168,-5.9963 7.6e-5,-0.99219 c -1.24e-4,1.61297 17.900224,2.82893 25.66458,2.64583 10.534618,-0.24842 19.66284,-0.44203 19.80508,0.0332 0.409927,1.36953 -2.417202,1.86176 -22.097532,2.01711 0,0 -18.550333,0.0696 -18.685477,-0.0331 -1.575005,-1.19641 -4.686727,-3.67086 -4.686727,-3.67086 z"
             id="path211"
             sodipodi:nodetypes="csscccssscscc" /></g></g><path
         d="m 83.0876,155.93436 c -0.873125,-0.10829 -2.153047,-0.13498 -2.844271,-0.0593 l -1.256771,0.13758 v -1.34501 c 0,-1.30862 0.02327,-1.3493 0.859896,-1.50319 0.554866,-0.10206 1.682547,0.0814 3.178998,0.51718 2.649043,0.77143 3.793973,0.83672 5.100413,0.29085 0.85138,-0.35573 0.90205,-0.35078 0.67726,0.0661 -0.63287,1.17377 -2.63708,2.27626 -3.86344,2.12522 -0.14552,-0.0179 -0.97896,-0.12119 -1.852085,-0.22947 z"
         style="fill:#7a7a7a;fill-opacity:1;stroke-width:0.264583"
         id="path338" /></g></g></svg>
